<?xml version="1.0" encoding="utf-8"?>
<!-- Svg Vector Icons : http://www.onlinewebfonts.com/icon -->
<!DOCTYPE svg PUBLIC "-//W3C//DTD SVG 1.1//EN" "http://www.w3.org/Graphics/SVG/1.1/DTD/svg11.dtd">
<svg version="1.1" xmlns="http://www.w3.org/2000/svg" xmlns:xlink="http://www.w3.org/1999/xlink" x="0px" y="0px" viewBox="0 0 256 256" enable-background="new 0 0 256 256" xml:space="preserve">
<metadata> Svg Vector Icons : http://www.onlinewebfonts.com/icon </metadata>
<g><g><path fill="#000000" d="M234.2,57.2c-0.7-11.6-5.9-17.7-17.7-17.7H187v-7.4l0,0c0-12.2-9.9-22.1-22.1-22.1H91.1C78.9,10,69,19.9,69,32.1l0,0v7.4H39.5c-11.8,0-17,6.1-17.7,17.7v23.6c0,8.1,9.6,11.8,17.7,11.8v129.8c0,16.3,13.2,23.6,29.5,23.6h118c16.3,0,29.5-7.3,29.5-23.6V92.6c8.1,0,17.7-3.7,17.7-11.8V57.2z M86.7,33.6c0-4.1,1.8-5.9,5.9-5.9h70.8c4.1,0,5.9,1.8,5.9,5.9v5.9H86.7V33.6z M198.8,216.5c0,8.1-3.7,11.8-11.8,11.8H69c-8.1,0-11.8-3.7-11.8-11.8V92.6h141.6V216.5z M216.5,80.8h-177V63.1c0-4.1,1.8-5.9,5.9-5.9h165.2c4.1,0,5.9,1.8,5.9,5.9V80.8z"/><path fill="#000000" d="M163.4,216.5h17.7c4.1,0,5.9-1.8,5.9-5.9V110.3c0-4.1-1.8-5.9-5.9-5.9h-17.7c-4.1,0-5.9,1.8-5.9,5.9v100.3C157.5,214.7,159.3,216.5,163.4,216.5z M163.4,110.3h17.7v100.3h-17.7V110.3z"/><path fill="#000000" d="M74.9,216.5h17.7c4.1,0,5.9-1.8,5.9-5.9V110.3c0-4.1-1.8-5.9-5.9-5.9H74.9c-4.1,0-5.9,1.8-5.9,5.9v100.3C69,214.7,70.8,216.5,74.9,216.5z M74.9,110.3h17.7v100.3H74.9V110.3z"/><path fill="#000000" d="M116.2,216.5h23.6c4.1,0,5.9-1.8,5.9-5.9V110.3c0-4.1-1.8-5.9-5.9-5.9h-23.6c-4.1,0-5.9,1.8-5.9,5.9v100.3C110.3,214.7,112.1,216.5,116.2,216.5z M116.2,110.3h23.6v100.3h-23.6V110.3z"/></g></g>
</svg>